<?xml version="1.0" encoding="UTF-8" standalone="no"?>
<svg width="64px" height="64px" viewBox="0 0 64 64" version="1.1" xmlns="http://www.w3.org/2000/svg" xmlns:xlink="http://www.w3.org/1999/xlink" xmlns:sketch="http://www.bohemiancoding.com/sketch/ns">
    <!-- Generator: Sketch 3.3.3 (12072) - http://www.bohemiancoding.com/sketch -->
    <title>rss</title>
    <desc>Created with Sketch.</desc>
    <defs></defs>
    <g id="Page-1" stroke="none" stroke-width="1" fill="none" fill-rule="evenodd" sketch:type="MSPage">
        <g id="Imported-Layers" sketch:type="MSLayerGroup" transform="translate(-221.000000, -97.000000)" fill="#FFFFFF">
            <path d="M274,161 C274,131.729 250.271,108 221,108 L221,97 C256.346,97 285,125.654 285,161 L274,161 L274,161 Z M262,161 L251,161 C251,144.431 237.569,131 221,131 L221,120 C243.644,120 262,138.356 262,161 L262,161 Z M229,145 C233.418,145 237,148.582 237,153 C237,157.418 233.418,161 229,161 C224.582,161 221,157.418 221,153 C221,148.582 224.582,145 229,145 L229,145 Z" id="rss" sketch:type="MSShapeGroup"></path>
        </g>
    </g>
</svg>