<?xml version="1.0" encoding="UTF-8" standalone="no"?>
<svg width="89px" height="71px" viewBox="0 0 89 71" version="1.1" xmlns="http://www.w3.org/2000/svg" xmlns:xlink="http://www.w3.org/1999/xlink" xmlns:sketch="http://www.bohemiancoding.com/sketch/ns">
    <!-- Generator: Sketch 3.3.3 (12072) - http://www.bohemiancoding.com/sketch -->
    <title>post</title>
    <desc>Created with Sketch.</desc>
    <defs></defs>
    <g id="Page-1" stroke="none" stroke-width="1" fill="none" fill-rule="evenodd" sketch:type="MSPage">
        <g id="post" sketch:type="MSLayerGroup" transform="translate(4.000000, 4.000000)">
            <path d="M51.2637082,50 L72.0026106,50 C76.9693515,50 81,45.9720202 81,41.0032553 L81,8.99674473 C81,4.02824994 76.9717316,0 72.0026106,0 L8.99738937,0 C4.03064849,0 0,4.02797982 0,8.99674473 L0,41.0032553 C0,45.9717501 4.02826843,50 8.99738937,50 L38.3301596,50 L38.3301596,63.3925781 L51.2637082,50 Z" id="Rectangle-39" stroke="#FFFFFF" stroke-width="7" stroke-linecap="round" stroke-linejoin="round" sketch:type="MSShapeGroup"></path>
            <path d="M27.2162124,24.0886364 C27.2162124,32.4186364 33.0612124,38.1586364 41.5662124,38.1586364 C44.4712124,38.1586364 46.7812124,37.7386364 49.2312124,36.5486364 C49.9662124,36.1986364 50.3512124,35.5686364 50.3512124,34.9386364 C50.3512124,33.9586364 49.5812124,33.3286364 48.7062124,33.3286364 C48.4612124,33.3286364 48.1812124,33.3986364 47.9012124,33.5036364 C45.8712124,34.3436364 44.0862124,34.7286364 41.5662124,34.7286364 C35.0912124,34.7286364 31.1012124,30.4236364 31.1012124,24.0886364 C31.1012124,17.6486364 35.0912124,13.3086364 41.5662124,13.3086364 C48.0062124,13.3086364 52.0312124,17.6486364 52.0312124,24.0186364 C52.0312124,26.9936364 51.0162124,28.1136364 49.7212124,28.1136364 C48.7062124,28.1136364 47.8662124,27.4486364 47.8662124,25.8736364 L47.8662124,18.9086364 C47.8662124,17.7186364 47.0962124,16.9136364 45.9062124,16.9136364 C44.6812124,16.9136364 44.0512124,17.7186364 43.9462124,18.4536364 L43.8762124,18.4536364 C43.2812124,17.5086364 41.9162124,16.7036364 40.0962124,16.7036364 C37.7862124,16.7036364 36.1062124,17.8586364 35.4062124,20.0636364 C35.0912124,21.0436364 34.9162124,22.1286364 34.9162124,24.0886364 C34.9162124,26.0486364 35.0912124,27.1336364 35.4062124,28.1136364 C36.1062124,30.3186364 37.9612124,31.5086364 40.4462124,31.5086364 C43.0362124,31.5086364 44.3312124,30.5986364 45.0662124,29.2336364 L45.1012124,29.2336364 C45.8712124,30.5986364 47.4462124,31.5086364 49.6512124,31.5086364 C52.9762124,31.5086364 55.9162124,29.0936364 55.9162124,23.9836364 C55.9162124,15.6886364 50.0712124,9.91363636 41.5662124,9.91363636 C33.0612124,9.91363636 27.2162124,15.6186364 27.2162124,24.0886364 L27.2162124,24.0886364 Z M39.1512124,26.3636364 C39.0112124,25.8736364 38.9062124,25.3136364 38.9062124,24.0886364 C38.9062124,22.8636364 39.0112124,22.3036364 39.1512124,21.8486364 C39.5012124,20.7636364 40.2012124,20.1336364 41.4262124,20.1336364 C42.6162124,20.1336364 43.3162124,20.7636364 43.6662124,21.8486364 C43.8412124,22.3036364 43.9462124,22.8636364 43.9462124,24.0886364 C43.9462124,25.3136364 43.8412124,25.8736364 43.6662124,26.3636364 C43.3162124,27.4136364 42.6162124,28.0436364 41.4262124,28.0436364 C40.2012124,28.0436364 39.5012124,27.4136364 39.1512124,26.3636364 L39.1512124,26.3636364 Z" id="@" fill="#FFFFFF" sketch:type="MSShapeGroup"></path>
        </g>
    </g>
</svg>