<?xml version="1.0" encoding="UTF-8" standalone="no"?>
<svg width="64px" height="64px" viewBox="0 0 64 64" version="1.1" xmlns="http://www.w3.org/2000/svg" xmlns:xlink="http://www.w3.org/1999/xlink" xmlns:sketch="http://www.bohemiancoding.com/sketch/ns">
    <!-- Generator: Sketch 3.3.3 (12072) - http://www.bohemiancoding.com/sketch -->
    <title>instagram</title>
    <desc>Created with Sketch.</desc>
    <defs></defs>
    <g id="Page-1" stroke="none" stroke-width="1" fill="none" fill-rule="evenodd" sketch:type="MSPage">
        <g id="Imported-Layers" sketch:type="MSLayerGroup" transform="translate(-112.000000, 0.000000)" fill="#FFFFFF">
            <path d="M168,64 L120,64 C115.582,64 112,60.418 112,56 L112,8 C112,3.582 115.582,0 120,0 L168,0 C172.418,0 176,3.582 176,8 L176,56 C176,60.418 172.418,64 168,64 L168,64 Z M144,19.6 C139.011,19.6 134.722,22.553 132.754,26.8 L132.743,26.8 C132.723,26.845 132.709,26.892 132.689,26.937 C132.571,27.2 132.467,27.469 132.367,27.741 C132.319,27.87 132.268,27.998 132.225,28.13 C132.133,28.407 132.058,28.692 131.986,28.978 C131.953,29.112 131.913,29.244 131.883,29.379 C131.818,29.681 131.773,29.989 131.73,30.299 C131.713,30.424 131.687,30.546 131.673,30.673 C131.627,31.109 131.6,31.551 131.6,32 C131.6,38.849 137.152,44.4 144,44.4 C150.848,44.4 156.4,38.849 156.4,32 C156.4,31.551 156.373,31.109 156.327,30.673 C156.313,30.546 156.287,30.424 156.27,30.299 C156.227,29.989 156.182,29.681 156.117,29.379 C156.087,29.244 156.047,29.112 156.014,28.978 C155.942,28.692 155.867,28.407 155.776,28.13 C155.732,27.998 155.681,27.87 155.633,27.741 C155.534,27.469 155.429,27.2 155.312,26.937 C155.292,26.892 155.277,26.845 155.257,26.8 L155.246,26.8 C153.278,22.553 148.989,19.6 144,19.6 L144,19.6 Z M168.8,10.4 C168.8,8.633 167.367,7.2 165.6,7.2 L159.2,7.2 C157.433,7.2 156,8.633 156,10.4 L156,16.8 C156,18.568 157.433,20 159.2,20 L165.6,20 C167.367,20 168.8,18.568 168.8,16.8 L168.8,10.4 L168.8,10.4 Z M168.8,26.8 L162.901,26.8 C163.356,28.456 163.6,30.2 163.6,32 C163.6,42.825 154.825,51.6 144,51.6 C133.175,51.6 124.4,42.825 124.4,32 C124.4,30.2 124.644,28.456 125.099,26.8 L119.2,26.8 L119.2,53.6 C119.2,55.367 120.633,56.8 122.4,56.8 L165.6,56.8 C167.367,56.8 168.8,55.367 168.8,53.6 L168.8,26.8 L168.8,26.8 Z" id="instagram" sketch:type="MSShapeGroup"></path>
        </g>
    </g>
</svg>