<?xml version="1.0" encoding="UTF-8" standalone="no"?>
<svg width="64px" height="64px" viewBox="0 0 64 64" version="1.1" xmlns="http://www.w3.org/2000/svg" xmlns:xlink="http://www.w3.org/1999/xlink">
    <!-- Generator: Sketch 3.7.2 (28276) - http://www.bohemiancoding.com/sketch -->
    <title>instagram</title>
    <desc>Created with Sketch.</desc>
    <defs>
        <polygon id="path-1" points="63.9798095 63.7331691 63.9798095 0.0201063054 5.07936508e-05 0.0201063054 5.07936508e-05 63.7331691"></polygon>
    </defs>
    <g id="Page-1" stroke="none" stroke-width="1" fill="none" fill-rule="evenodd">
        <g id="Imported-Layers" transform="translate(-402.000000, 0.000000)">
            <g id="instagram" transform="translate(402.000000, 0.000000)">
                <g id="Group-3" transform="translate(0.000000, 0.106348)">
                    <mask id="mask-2" fill="white">
                        <use xlink:href="#path-1"></use>
                    </mask>
                    <g id="Clip-2"></g>
                    <path d="M58.0293841,44.7494025 C57.8870349,47.8553841 57.366019,49.542164 56.9279238,50.6647029 C56.3476063,52.1516843 55.654273,53.2128925 54.5349079,54.3275912 C53.4155429,55.4424163 52.3497651,56.1327327 50.8566857,56.710631 C49.7294476,57.1468998 48.0354794,57.6658701 44.9164952,57.8076259 C41.5437968,57.9608891 40.5321143,57.9932615 31.9898921,57.9932615 C23.4476698,57.9932615 22.4359873,57.9608891 19.0632889,57.8076259 C15.9443048,57.6658701 14.2504635,57.1468998 13.1232254,56.710631 C11.630019,56.1327327 10.5643683,55.4424163 9.44500317,54.3277176 C8.32551111,53.2128925 7.63217778,52.1516843 7.0519873,50.6647029 C6.61389206,49.542164 6.09274921,47.8553841 5.9504,44.7494025 C5.79649524,41.3902585 5.7639873,40.3827935 5.7639873,31.8766883 C5.7639873,23.370583 5.79649524,22.3629916 5.9504,19.0038476 C6.09274921,15.8979924 6.61389206,14.2110861 7.0519873,13.0885472 C7.63217778,11.6015658 8.32551111,10.5403575 9.44487619,9.42565892 C10.5643683,8.31096029 11.630019,7.62051735 13.1232254,7.04261914 C14.2504635,6.60635025 15.9443048,6.08750641 19.0631619,5.94575063 C22.4364952,5.79248748 23.4481778,5.75998861 31.9898921,5.75998861 C40.5316063,5.75998861 41.5432889,5.79248748 44.9164952,5.94575063 C48.0354794,6.08750641 49.7294476,6.60635025 50.8566857,7.04261914 C52.3497651,7.62051735 53.4155429,8.31096029 54.5349079,9.42565892 C55.654273,10.5403575 56.3476063,11.6015658 56.9279238,13.0885472 C57.366019,14.2110861 57.8870349,15.8979924 58.0293841,19.0038476 C58.1832889,22.3629916 58.2159238,23.370583 58.2159238,31.8766883 C58.2159238,40.3827935 58.1832889,41.3902585 58.0293841,44.7494025 M63.7873524,18.7422127 C63.6319238,15.351455 63.0912254,13.0358156 62.3003683,11.0093782 C61.4828444,8.91452882 60.3890032,7.13796602 58.6105905,5.36696724 C56.8321778,3.595842 55.0481778,2.50668723 52.9445587,1.69257155 C50.9096381,0.90501136 48.5843048,0.366440577 45.1792254,0.211786417 C41.7672889,0.0567528921 40.6778921,0.0200810144 31.9898921,0.0200810144 C23.3018921,0.0200810144 22.2126222,0.0567528921 18.8005587,0.211786417 C15.3954794,0.366440577 13.070146,0.90501136 11.0352254,1.69257155 C8.93160635,2.50668723 7.14760635,3.595842 5.36919365,5.36696724 C3.59078095,7.13796602 2.49693968,8.91452882 1.67941587,11.0093782 C0.88855873,13.0358156 0.347860317,15.351455 0.192431746,18.7422127 C0.0367492063,22.1400518 5.07936508e-05,23.2249071 5.07936508e-05,31.8766883 C5.07936508e-05,40.528343 0.0367492063,41.6131983 0.192431746,45.0110374 C0.347860317,48.4019216 0.88855873,50.717561 1.67941587,52.7439983 C2.49693968,54.8387213 3.59078095,56.6154105 5.36919365,58.3864093 C7.14760635,60.1574081 8.93160635,61.2466893 11.0352254,62.060805 C13.070146,62.8482387 15.3954794,63.3868095 18.8005587,63.5414637 C22.2126222,63.6966237 23.3018921,63.7331691 31.9898921,63.7331691 C40.6778921,63.7331691 41.7672889,63.6966237 45.1792254,63.5414637 C48.5843048,63.3868095 50.9096381,62.8482387 52.9445587,62.060805 C55.0481778,61.2466893 56.8321778,60.1574081 58.6105905,58.3864093 C60.3890032,56.6154105 61.4828444,54.8387213 62.3003683,52.7439983 C63.0912254,50.717561 63.6319238,48.4019216 63.7873524,45.0110374 C63.9430349,41.6131983 63.9798603,40.528343 63.9798603,31.8766883 C63.9798603,23.2249071 63.9430349,22.1400518 63.7873524,18.7422127" id="Fill-1" fill="#FFFFFF" mask="url(#mask-2)"></path>
                </g>
                <path d="M31.9899048,42.6018341 C26.1007619,42.6018341 21.3265397,37.8476413 21.3265397,31.9830494 C21.3265397,26.1183309 26.1007619,21.3641381 31.9899048,21.3641381 C37.8790476,21.3641381 42.6532698,26.1183309 42.6532698,31.9830494 C42.6532698,37.8476413 37.8790476,42.6018341 31.9899048,42.6018341 M31.9899048,15.6242305 C22.9173968,15.6242305 15.5626032,22.9482368 15.5626032,31.9830494 C15.5626032,41.0177355 22.9173968,48.3417417 31.9899048,48.3417417 C41.0624127,48.3417417 48.4172063,41.0177355 48.4172063,31.9830494 C48.4172063,22.9482368 41.0624127,15.6242305 31.9899048,15.6242305" id="Fill-4" fill="#FFFFFF"></path>
                <path d="M49.0662095,11.1551047 C46.9460825,11.1551047 45.2274794,12.8666697 45.2274794,14.9778318 C45.2274794,17.0891203 46.9460825,18.8006854 49.0662095,18.8006854 C51.1863365,18.8006854 52.9049397,17.0891203 52.9049397,14.9778318 C52.9049397,12.8666697 51.1863365,11.1551047 49.0662095,11.1551047" id="Fill-6" fill="#FFFFFF"></path>
            </g>
        </g>
    </g>
</svg>