<?xml version="1.0" encoding="UTF-8" standalone="no"?>
<svg width="49px" height="65px" viewBox="0 0 49 65" version="1.1" xmlns="http://www.w3.org/2000/svg" xmlns:xlink="http://www.w3.org/1999/xlink" xmlns:sketch="http://www.bohemiancoding.com/sketch/ns">
    <!-- Generator: Sketch 3.3.3 (12072) - http://www.bohemiancoding.com/sketch -->
    <title>pinterest</title>
    <desc>Created with Sketch.</desc>
    <defs></defs>
    <g id="Page-1" stroke="none" stroke-width="1" fill="none" fill-rule="evenodd" sketch:type="MSPage">
        <g id="Imported-Layers" sketch:type="MSLayerGroup" transform="translate(-21.000000, -103.000000)" fill="#FFFFFF">
            <path d="M41.3801251,144.647033 C40.8571251,146.729033 40.3311251,148.914033 39.7851251,151.048033 C39.2471251,153.152033 38.7741251,155.288033 37.9911251,157.221033 C36.6941251,160.425033 35.0451251,163.520033 32.8821251,166.026033 C31.4461251,167.693033 31.7511251,167.026033 31.3191251,166.937033 C30.9891251,166.868033 30.9601251,166.545033 30.8951251,166.076033 C30.5431251,163.530033 30.7831251,160.587033 30.9141251,157.727033 C31.0631251,154.468033 31.7481251,151.757033 32.3841251,149.049033 C33.5961251,143.891033 34.7501251,138.833033 35.9721251,133.641033 C36.0541251,133.295033 36.2731251,132.724033 36.1971251,132.527033 C35.6431251,131.085033 35.2841251,129.790033 35.1261251,128.276033 C34.9431251,126.538033 35.0831251,124.915033 35.4741251,123.418033 C36.1651251,120.775033 37.7561251,118.429033 40.2091251,117.573033 C41.7681251,117.031033 43.4961251,117.277033 44.5451251,117.903033 C45.6261251,118.548033 46.3671251,119.570033 46.7131251,121.015033 C47.0821251,122.556033 46.8101251,124.394033 46.5131251,125.746033 C45.8461251,128.790033 44.9691251,131.079033 44.1711251,134.020033 C43.7761251,135.478033 43.3291251,136.975033 43.6981251,138.550033 C44.0371251,139.994033 44.7901251,140.989033 45.8161251,141.737033 C46.8801251,142.510033 48.1391251,142.936033 49.8781251,142.876033 C52.9471251,142.767033 55.0811251,140.805033 56.5071251,138.954033 C58.7871251,135.993033 60.1691251,131.996033 60.6931251,127.239033 C60.8621251,125.706033 60.9861251,123.943033 60.8671251,122.204033 C60.6491251,118.994033 59.6451251,116.413033 58.0521251,114.411033 C56.5351251,112.506033 54.3861251,110.989033 51.7721251,110.135033 C49.1791251,109.289033 45.5901251,109.008033 42.4021251,109.553033 C36.6091251,110.546033 32.5231251,113.839033 30.1171251,118.384033 C28.8561251,120.765033 28.0231251,123.502033 28.0231251,126.910033 C28.0231251,129.537033 28.6721251,131.573033 29.7181251,133.159033 C30.0501251,133.662033 30.5381251,134.078033 30.8641251,134.652033 C31.3261251,135.467033 30.7931251,136.680033 30.5651251,137.562033 C30.2901251,138.625033 30.2611251,140.093033 29.0201251,140.118033 C28.5071251,140.128033 27.8611251,139.751033 27.4251251,139.510033 C24.1641251,137.707033 22.1821251,134.427033 21.3701251,130.174033 C20.8761251,127.591033 20.8771251,124.576033 21.3701251,122.078033 C21.8461251,119.663033 22.7321251,117.434033 23.7121251,115.626033 C25.7481251,111.869033 28.7301251,108.866033 32.3601251,106.719033 C35.1501251,105.070033 38.2981251,103.912033 42.1281251,103.355033 C43.3991251,103.170033 44.7141251,103.093033 46.1401251,103.026033 C50.3101251,102.829033 54.1021251,103.774033 56.9551251,105.050033 C59.9681251,106.397033 62.3721251,108.191033 64.4061251,110.414033 C66.5001251,112.701033 68.0251251,115.363033 68.9921251,118.687033 C69.4951251,120.417033 69.9851251,122.269033 69.9851251,124.405033 C69.9851251,126.549033 69.5321251,128.437033 69.2161251,130.326033 C68.0311251,137.396033 64.6681251,143.178033 59.6221251,146.468033 C58.3981251,147.266033 56.9171251,148.002033 55.2361251,148.492033 C53.5681251,148.978033 51.6661251,149.342033 49.6281251,149.200033 C47.6501251,149.064033 46.0321251,148.527033 44.6701251,147.758033 C43.3201251,146.996033 42.1841251,146.060033 41.3801251,144.647033" id="pinterest" sketch:type="MSShapeGroup"></path>
        </g>
    </g>
</svg>