<?xml version="1.0" encoding="UTF-8" standalone="no"?>
<svg width="567px" height="38px" viewBox="0 0 567 38" version="1.1" xmlns="http://www.w3.org/2000/svg" xmlns:xlink="http://www.w3.org/1999/xlink" xmlns:sketch="http://www.bohemiancoding.com/sketch/ns">
    <!-- Generator: Sketch 3.3.3 (12072) - http://www.bohemiancoding.com/sketch -->
    <title>tmp-logotype</title>
    <desc>Created with Sketch.</desc>
    <defs></defs>
    <g id="Page-1" stroke="none" stroke-width="1" fill="none" fill-rule="evenodd" sketch:type="MSPage">
        <g id="HOME-PAGE" sketch:type="MSArtboardGroup" transform="translate(-435.000000, -48.000000)">
            <g id="top-bar" sketch:type="MSLayerGroup" transform="translate(0.000000, -2.000000)">
                <g id="tmp-logotype" transform="translate(435.000000, 50.000000)" sketch:type="MSShapeGroup">
                    <path d="M1.24138699,35.8555293 L48.6678052,35.8555293" id="Line" stroke="#212621" stroke-width="1.54180166" stroke-linecap="square"></path>
                    <path d="M34.5582885,24.8747186 C33.6702108,25.7257932 32.5601136,26.3918515 32.2270844,26.3918515 C31.9680617,26.3548482 31.8940552,26.0588223 32.1530779,24.9487251 L33.9292334,16.9930285 C34.8173112,13.1076883 33.6702108,12.4786333 32.63412,12.4786333 C31.857052,12.4786333 30.8949678,12.8116624 29.8218738,13.4407175 C28.4157507,14.2547888 25.9735369,16.141954 23.7903457,18.9912035 L23.7163392,18.9912035 C24.7894332,13.9217596 25.7515174,9.11133844 26.7876081,4.15290429 C27.0096276,3.19082005 26.9726243,2.89479413 26.5285855,2.89479413 C25.9365336,2.89479413 24.2713878,3.52384921 22.9762744,3.96788809 L22.8652647,4.48593345 C22.6432453,5.04098205 22.1992064,5.18899501 19.7199893,5.18899501 L4.5116577,5.18899501 C3.51257023,5.18899501 3.17954107,5.11498853 2.80950867,4.26391401 L1.88442767,4.26391401 C1.47739203,6.26208896 0.811333712,8.81531252 0.0342656735,11.1095134 L1.32937907,11.1095134 C2.10644711,9.48137084 2.73550219,8.44528012 3.36455727,7.7792218 C4.06761882,6.96515052 4.95569658,6.63212136 7.98996226,6.63212136 L10.1731534,6.63212136 L6.28781322,24.3936765 C5.58475166,27.5019487 5.32572898,27.7979746 2.32846655,28.0569973 L2.06944387,29.2040977 L13.1334126,29.2040977 L13.4294385,28.0569973 C10.0991469,27.7609714 9.87712749,27.5019487 10.5061826,24.3936765 L14.1325001,6.63212136 L15.9086556,6.63212136 C18.3508694,6.63212136 20.3490444,6.78013432 22.3842226,6.96515052 C21.0151027,14.5138115 19.3499569,22.5435145 17.8328241,29.3521107 L18.0918468,29.6481366 C19.2759504,29.3151074 20.6080671,29.0190815 21.829174,28.8710686 C22.1992064,26.9098968 22.8282615,23.5796052 23.2723003,21.7664465 C25.0114526,18.8801938 28.4157507,15.4388925 29.7478673,15.4388925 C30.2659127,15.4388925 30.4139256,16.0309443 30.0808965,17.5480771 L28.156728,25.8368029 C27.4906697,28.6490491 27.9717118,29.6481366 29.0448058,29.6481366 C30.2659127,29.6481366 32.7451298,28.3530232 35.0763339,25.9108094 L34.5582885,24.8747186 Z M49.6186072,24.2086603 C47.8424517,25.9108094 45.7702702,26.9839033 44.2901406,26.9839033 C42.2549624,26.9839033 41.5889041,25.1707446 41.5889041,23.2465761 C41.5889041,22.9505502 41.5889041,22.617521 41.6259073,22.1734821 C45.2892281,21.2113979 51.2467497,19.3242327 51.2467497,15.5869054 C51.2467497,13.9217596 49.9886396,12.4786333 47.6204322,12.4786333 C45.7702702,12.4786333 43.4390661,13.5517272 41.9219333,14.7358309 C39.109687,16.9190221 37.555551,20.6933525 37.555551,24.1346538 C37.555551,28.5380394 39.9237583,29.6481366 41.9219333,29.6481366 C44.2161341,29.6481366 47.0283804,28.6490491 50.3216687,25.1707446 L49.6186072,24.2086603 Z M46.1032994,14.1067758 C46.7693577,14.1067758 47.6574355,14.6988277 47.6574355,16.1049508 C47.6574355,17.992116 46.2143091,19.5832553 41.7739203,20.8783687 C42.3289689,16.9930285 43.9201082,15.0688601 44.808186,14.5138115 C45.1782184,14.2547888 45.6962637,14.1067758 46.1032994,14.1067758 L46.1032994,14.1067758 Z" id="The" fill="#212621"></path>
                    <path d="M113.829292,0.977345937 L104.504475,0.977345937 L87.6865028,28.0637176 C85.5218133,18.4058719 83.6901529,9.85812352 81.8584925,0.977345937 L72.2561518,0.977345937 L71.8121129,2.53148201 C76.9740649,2.97552089 77.307094,3.47506463 75.6974531,8.85903604 L72.4781712,19.9045032 C70.4799962,26.6205912 69.4809088,29.7843682 68.592831,32.0045626 C67.6492484,34.3912716 66.5391512,35.1683396 63.430879,35.4458639 L63.042345,37 L75.5864434,37 L75.9194725,35.4458639 C71.9231226,35.0573299 71.368074,34.3912716 71.756608,31.9490578 C72.0341323,30.0063877 72.7556955,27.0646301 74.3098316,21.3476295 L78.3061815,6.91636594 L78.4726961,6.91636594 C80.470871,17.5177942 82.2470265,26.8981155 83.9676772,36.7779806 L85.2997938,36.7779806 L103.338873,6.41682221 L103.505388,6.41682221 C102.339786,14.0764929 101.118679,21.2921247 99.897572,29.4513391 C99.0649991,34.7243007 98.7874748,35.001825 94.6246103,35.4458639 L94.2360763,37 L108.611835,37 L108.944864,35.4458639 C104.55998,35.001825 104.226951,34.8353105 104.893009,29.4513391 C105.836592,22.1802024 106.669165,15.6861338 107.890272,7.63792912 C108.55633,3.14203547 108.722845,2.92001603 113.440758,2.53148201 L113.829292,0.977345937 Z M140.483959,0.0892681786 C128.827938,0.0892681786 120.224685,10.468677 120.224685,22.0691927 C120.224685,31.5050189 126.274715,37.8325729 135.044482,37.8325729 C146.922523,37.8325729 155.359261,27.8416981 155.359261,16.019163 C155.359261,6.6943465 149.420241,0.0892681786 140.483959,0.0892681786 L140.483959,0.0892681786 Z M140.095425,2.08744313 C146.978027,2.08744313 149.531251,7.97095828 149.531251,15.2975998 C149.531251,24.5114065 144.369299,35.8343979 135.488521,35.8343979 C128.938948,35.8343979 125.99719,30.1173974 125.99719,22.735251 C125.99719,12.855386 131.714191,2.08744313 140.095425,2.08744313 L140.095425,2.08744313 Z M167.860189,0.977345937 L167.471655,2.53148201 C171.912044,3.03102575 172.134063,3.36405491 171.30149,7.8044437 L166.972111,30.283912 C166.195043,34.5022813 165.806509,35.001825 161.532635,35.4458639 L161.144101,37 L173.35517,37 C180.348782,37 185.732754,35.8899028 190.506172,32.8926404 C196.389687,29.2293196 199.664474,23.0127753 199.664474,16.0746678 C199.664474,5.47323959 192.670861,0.977345937 181.736404,0.977345937 L167.860189,0.977345937 Z M176.629957,6.25030763 C176.962986,4.41864725 177.24051,3.80809379 177.795559,3.47506463 C178.461617,3.03102575 179.682724,2.86451117 181.292365,2.86451117 C189.22956,2.92001603 193.836463,7.58242426 193.836463,15.7416387 C193.836463,26.1210475 187.453404,34.8908153 176.574452,34.9463202 C175.075821,34.9463202 173.688199,34.7243007 172.800121,34.1692521 C171.801034,33.5586987 171.690024,32.5041063 172.189568,29.7288634 L176.629957,6.25030763 Z M211.943382,0.977345937 L211.554848,2.53148201 C216.106246,2.92001603 216.383771,3.25304519 215.495693,7.69343398 L211.166314,30.283912 C210.278236,34.7243007 209.834197,35.0573299 205.393808,35.4458639 L205.005274,37 L231.203568,37 C231.980636,35.2238445 234.034316,30.0063877 234.64487,28.3967467 L233.035229,27.8416981 C231.869627,29.8953779 230.593015,31.8935529 229.260898,33.1146598 C227.762267,34.5577862 226.097121,35.001825 222.100771,35.001825 C219.103509,35.001825 217.493868,34.8908153 216.661295,34.1692521 C215.939732,33.5031938 215.884227,32.0600675 216.439275,29.0073002 L218.270936,19.2939497 L223.321878,19.2939497 C228.095296,19.2939497 228.095296,19.6824837 227.984286,23.6788336 L229.649432,23.6788336 L231.758617,13.0219005 L230.093471,13.0219005 C228.761354,16.6852213 228.428325,17.0737553 223.765917,17.0737553 L218.714975,17.0737553 L220.990674,5.19571529 C221.379208,3.14203547 221.545723,2.92001603 223.488393,2.92001603 L227.484743,2.92001603 C231.425588,2.92001603 232.202656,3.41955977 232.813209,4.69617155 C233.423763,5.75076389 233.534772,7.47141454 233.590277,9.63610408 L235.255423,9.52509436 C235.643957,6.30581249 236.143501,2.08744313 236.310015,0.977345937 L211.943382,0.977345937 Z M274.232169,36.0009125 C272.900052,35.5568736 271.84546,35.0573299 270.568848,33.3921841 C269.458751,31.8935529 268.459663,30.1173974 267.127547,27.508669 C265.850935,24.9554454 264.407809,21.5141441 263.85276,20.0710177 C268.348654,18.5168817 272.511518,15.1310852 272.511518,9.52509436 C272.511518,6.19480277 271.068392,3.97460837 269.070217,2.69799659 C267.127547,1.36587996 264.130284,0.977345937 261.077517,0.977345937 L248.644428,0.977345937 L248.311399,2.53148201 C252.696283,2.92001603 252.918303,3.14203547 252.08573,7.63792912 L247.756351,29.9508828 C246.812768,34.7243007 246.479739,35.001825 242.26137,35.4458639 L241.872836,37 L256.248594,37 L256.581623,35.4458639 C252.196739,35.0573299 251.808205,34.7243007 252.751788,29.8953779 L254.305924,21.2366198 L256.470614,21.2366198 C258.413284,21.2366198 259.134847,21.7361635 259.96742,23.7898433 C261.133022,26.6205912 262.298624,29.3958342 263.686245,32.0045626 C265.628916,35.6678834 267.460576,37.2220194 273.122072,37.4440389 L273.78813,37.4440389 L274.232169,36.0009125 Z M254.694458,19.4049594 L257.303187,5.80626875 C257.580711,4.36314239 257.858235,3.69708407 258.302274,3.36405491 C258.801818,2.97552089 259.634391,2.80900631 260.744488,2.80900631 C264.574323,2.80900631 267.016537,5.19571529 267.016537,9.96913324 C267.016537,13.3549297 265.406896,16.3521921 262.909177,18.0173379 C261.299536,19.0719303 259.412371,19.4049594 257.081167,19.4049594 L254.694458,19.4049594 Z M322.97777,0.977345937 L310.378167,0.977345937 L309.934128,2.53148201 C313.985983,2.75350145 314.98507,3.36405491 314.763051,5.97278333 C314.652041,7.5269194 314.319012,10.2466575 313.319924,15.4641144 L310.822206,28.7297759 L310.655691,28.7297759 L294.614787,0.977345937 L286.233553,0.977345937 L285.845019,2.53148201 C288.786776,2.69799659 289.841369,3.03102575 290.507427,4.19662781 C291.173485,5.41773473 291.395505,6.30581249 290.784951,9.35857978 L288.009708,22.5687364 C286.899611,27.7306884 286.289058,30.2284071 285.678504,32.1155723 C284.956941,34.5577862 283.680329,35.2793493 280.794076,35.4458639 L280.405542,37 L293.28267,37 L293.615699,35.4458639 C289.730359,35.1683396 288.731271,34.5577862 288.897786,32.0045626 C289.008796,30.1729022 289.341825,27.4531641 290.285408,22.6797462 L293.116155,8.24848258 L293.28267,8.24848258 L309.601099,37.4440389 L311.488264,37.4440389 L315.651128,15.4641144 C316.650216,10.2466575 317.371779,7.47141454 317.815818,6.02828819 C318.537381,3.58607435 319.258944,2.69799659 322.644741,2.53148201 L322.97777,0.977345937 Z M350.19982,0.977345937 L349.811286,2.53148201 C354.19617,2.97552089 354.473694,3.30855005 353.641121,7.69343398 L349.200732,30.0618925 C348.25715,34.7243007 347.868616,35.001825 343.650246,35.4458639 L343.261712,37 L358.414539,37 L358.747568,35.4458639 C353.696626,35.001825 353.308092,34.6687959 354.19617,30.0618925 L355.861315,21.3476295 L359.635646,22.5132316 C360.246199,22.5132316 360.967763,22.5132316 361.689326,22.4577267 C367.961375,22.0136878 374.954987,18.1838525 374.954987,10.3576673 C374.954987,4.03011323 370.681113,0.977345937 363.021442,0.977345937 L350.19982,0.977345937 Z M358.803073,5.91727847 C359.136102,4.14112295 359.524636,3.53056949 360.13519,3.25304519 C360.690238,2.97552089 361.467306,2.80900631 362.466394,2.80900631 C367.017792,2.80900631 369.515511,5.47323959 369.515511,10.080143 C369.515511,17.184765 364.298054,20.2375323 360.190695,20.2375323 C358.303529,20.2375323 356.971413,19.7934934 356.249849,19.5159691 L358.803073,5.91727847 Z M411.545024,36.0009125 C410.212907,35.5568736 409.158315,35.0573299 407.881703,33.3921841 C406.771606,31.8935529 405.772519,30.1173974 404.440402,27.508669 C403.16379,24.9554454 401.720664,21.5141441 401.165615,20.0710177 C405.661509,18.5168817 409.824373,15.1310852 409.824373,9.52509436 C409.824373,6.19480277 408.381247,3.97460837 406.383072,2.69799659 C404.440402,1.36587996 401.44314,0.977345937 398.390372,0.977345937 L385.957284,0.977345937 L385.624255,2.53148201 C390.009138,2.92001603 390.231158,3.14203547 389.398585,7.63792912 L385.069206,29.9508828 C384.125623,34.7243007 383.792594,35.001825 379.574225,35.4458639 L379.185691,37 L393.56145,37 L393.894479,35.4458639 C389.509595,35.0573299 389.121061,34.7243007 390.064643,29.8953779 L391.618779,21.2366198 L393.783469,21.2366198 C395.726139,21.2366198 396.447702,21.7361635 397.280275,23.7898433 C398.445877,26.6205912 399.611479,29.3958342 400.999101,32.0045626 C402.941771,35.6678834 404.773431,37.2220194 410.434927,37.4440389 L411.100985,37.4440389 L411.545024,36.0009125 Z M392.007313,19.4049594 L394.616042,5.80626875 C394.893566,4.36314239 395.17109,3.69708407 395.615129,3.36405491 C396.114673,2.97552089 396.947246,2.80900631 398.057343,2.80900631 C401.887178,2.80900631 404.329392,5.19571529 404.329392,9.96913324 C404.329392,13.3549297 402.719751,16.3521921 400.222033,18.0173379 C398.612392,19.0719303 396.725227,19.4049594 394.394022,19.4049594 L392.007313,19.4049594 Z M441.141449,0.0892681786 C429.485428,0.0892681786 420.882175,10.468677 420.882175,22.0691927 C420.882175,31.5050189 426.932205,37.8325729 435.701972,37.8325729 C447.580012,37.8325729 456.016751,27.8416981 456.016751,16.019163 C456.016751,6.6943465 450.077731,0.0892681786 441.141449,0.0892681786 L441.141449,0.0892681786 Z M440.752915,2.08744313 C447.635517,2.08744313 450.188741,7.97095828 450.188741,15.2975998 C450.188741,24.5114065 445.026789,35.8343979 436.146011,35.8343979 C429.596438,35.8343979 426.65468,30.1173974 426.65468,22.735251 C426.65468,12.855386 432.371681,2.08744313 440.752915,2.08744313 L440.752915,2.08744313 Z M468.628688,0.977345937 L468.240154,2.53148201 C472.625038,2.97552089 472.902563,3.30855005 472.06999,7.69343398 L467.629601,30.0618925 C466.686018,34.7243007 466.297484,35.001825 462.079115,35.4458639 L461.690581,37 L476.843408,37 L477.176437,35.4458639 C472.125495,35.001825 471.736961,34.6687959 472.625038,30.0618925 L474.290184,21.3476295 L478.064515,22.5132316 C478.675068,22.5132316 479.396631,22.5132316 480.118194,22.4577267 C486.390244,22.0136878 493.383856,18.1838525 493.383856,10.3576673 C493.383856,4.03011323 489.109982,0.977345937 481.450311,0.977345937 L468.628688,0.977345937 Z M477.231942,5.91727847 C477.564971,4.14112295 477.953505,3.53056949 478.564058,3.25304519 C479.119107,2.97552089 479.896175,2.80900631 480.895263,2.80900631 C485.446661,2.80900631 487.94438,5.47323959 487.94438,10.080143 C487.94438,17.184765 482.726923,20.2375323 478.619563,20.2375323 C476.732398,20.2375323 475.400281,19.7934934 474.678718,19.5159691 L477.231942,5.91727847 Z M504.219638,0.977345937 L503.831104,2.53148201 C508.382502,2.92001603 508.660027,3.25304519 507.771949,7.69343398 L503.44257,30.283912 C502.554492,34.7243007 502.110453,35.0573299 497.670064,35.4458639 L497.28153,37 L523.479824,37 C524.256892,35.2238445 526.310572,30.0063877 526.921126,28.3967467 L525.311485,27.8416981 C524.145883,29.8953779 522.869271,31.8935529 521.537154,33.1146598 C520.038523,34.5577862 518.373377,35.001825 514.377027,35.001825 C511.379765,35.001825 509.770124,34.8908153 508.937551,34.1692521 C508.215988,33.5031938 508.160483,32.0600675 508.715532,29.0073002 L510.547192,19.2939497 L515.598134,19.2939497 C520.371552,19.2939497 520.371552,19.6824837 520.260542,23.6788336 L521.925688,23.6788336 L524.034873,13.0219005 L522.369727,13.0219005 C521.03761,16.6852213 520.704581,17.0737553 516.042173,17.0737553 L510.991231,17.0737553 L513.26693,5.19571529 C513.655464,3.14203547 513.821979,2.92001603 515.764649,2.92001603 L519.760999,2.92001603 C523.701844,2.92001603 524.478912,3.41955977 525.089465,4.69617155 C525.700019,5.75076389 525.811028,7.47141454 525.866533,9.63610408 L527.531679,9.52509436 C527.920213,6.30581249 528.419757,2.08744313 528.586271,0.977345937 L504.219638,0.977345937 Z M566.508425,36.0009125 C565.176308,35.5568736 564.121716,35.0573299 562.845104,33.3921841 C561.735007,31.8935529 560.735919,30.1173974 559.403803,27.508669 C558.127191,24.9554454 556.684065,21.5141441 556.129016,20.0710177 C560.62491,18.5168817 564.787774,15.1310852 564.787774,9.52509436 C564.787774,6.19480277 563.344648,3.97460837 561.346473,2.69799659 C559.403803,1.36587996 556.40654,0.977345937 553.353773,0.977345937 L540.920684,0.977345937 L540.587655,2.53148201 C544.972539,2.92001603 545.194559,3.14203547 544.361986,7.63792912 L540.032607,29.9508828 C539.089024,34.7243007 538.755995,35.001825 534.537626,35.4458639 L534.149092,37 L548.52485,37 L548.857879,35.4458639 C544.472995,35.0573299 544.084461,34.7243007 545.028044,29.8953779 L546.58218,21.2366198 L548.74687,21.2366198 C550.68954,21.2366198 551.411103,21.7361635 552.243676,23.7898433 C553.409278,26.6205912 554.57488,29.3958342 555.962501,32.0045626 C557.905172,35.6678834 559.736832,37.2220194 565.398328,37.4440389 L566.064386,37.4440389 L566.508425,36.0009125 Z M546.970714,19.4049594 L549.579443,5.80626875 C549.856967,4.36314239 550.134491,3.69708407 550.57853,3.36405491 C551.078074,2.97552089 551.910647,2.80900631 553.020744,2.80900631 C556.850579,2.80900631 559.292793,5.19571529 559.292793,9.96913324 C559.292793,13.3549297 557.683152,16.3521921 555.185433,18.0173379 C553.575792,19.0719303 551.688627,19.4049594 549.357423,19.4049594 L546.970714,19.4049594 Z" id="MODERN-PROPER" fill="#212621"></path>
                </g>
            </g>
        </g>
    </g>
</svg>