<?xml version="1.0" encoding="UTF-8" standalone="no"?>
<svg width="100px" height="50px" viewBox="0 0 100 50" version="1.1" xmlns="http://www.w3.org/2000/svg" xmlns:xlink="http://www.w3.org/1999/xlink" xmlns:sketch="http://www.bohemiancoding.com/sketch/ns">
    <!-- Generator: Sketch 3.3.3 (12072) - http://www.bohemiancoding.com/sketch -->
    <title>tmp-logo</title>
    <desc>Created with Sketch.</desc>
    <defs></defs>
    <g id="Page-1" stroke="none" stroke-width="1" fill="none" fill-rule="evenodd" sketch:type="MSPage">
        <g id="HOME-PAGE" sketch:type="MSArtboardGroup" transform="translate(-65.000000, -482.000000)" fill="#FFFFFF">
            <g id="intro" sketch:type="MSLayerGroup" transform="translate(65.000000, 218.000000)">
                <g id="TMP-logo" transform="translate(0.000000, 264.000000)" sketch:type="MSShapeGroup">
                    <path d="M15.5713414,38.6939438 L0.685044177,38.6939438 L0.987052209,37.1240161 L15.9129317,37.1240161 L15.5713414,38.6939438 L15.5713414,38.6939438 Z M12.6851727,28.4413494 C12.1598072,31.2552932 12.2713574,31.7410763 15.7615422,31.9677751 L15.4592771,33.2416064 L3.45914859,33.2416064 L3.76141365,31.9677751 C6.909751,31.7410763 7.20841767,31.1797269 7.73378313,28.4413494 L11.2242249,10.4786827 L9.64812851,10.4786827 C6.87376707,10.4786827 6.19726908,10.8529157 5.44906024,11.6409639 C4.80854618,12.3534458 4.28318072,13.3645944 3.49873092,15.052241 L2.14573494,15.052241 C2.8977992,12.6161285 3.61028112,9.95331727 4.02409639,7.96700402 L4.99926104,7.96700402 C5.37323695,8.82702008 5.71148594,8.90258635 6.72263454,8.90258635 L21.4218153,8.90258635 C22.360996,8.90258635 22.5840964,8.67948594 23.2965783,7.96700402 L24.3473092,7.96700402 C24.0486426,9.42795181 23.6348273,12.7276787 23.3361606,14.9802731 L21.9471807,15.052241 C21.9471807,13.3286104 21.8356305,12.1663293 21.3858313,11.4142651 C20.8244819,10.6657992 19.8853012,10.4786827 17.9709558,10.4786827 L16.0961928,10.4786827 L12.6851727,28.4413494 L12.6851727,28.4413494 Z M81.642988,29.5679036 C80.6775904,29.6416707 79.6386827,29.6416707 78.7473092,29.6416707 L74.8037269,28.4071647 C74.3300241,31.9150843 73.8689157,35.4163213 73.3977831,39.0725462 C72.4326426,46.348498 72.9554378,46.4957751 78.8940723,47.0923373 L78.4483855,49.0966426 L59.663743,49.0966426 L60.1060884,47.0923373 C65.9007871,46.4957751 66.2693655,46.2009639 67.3853815,39.0725462 C68.943743,28.0833092 70.6529799,18.2805141 72.2851084,7.81073092 L72.0638072,7.81073092 L47.4847229,48.7982329 L45.849253,48.7982329 C43.4730281,35.5065382 41.0232932,22.7345542 38.27849,8.55148594 L38.0538474,8.55148594 L32.7084337,28.1570763 C30.6272771,35.8049478 29.5883695,39.8133012 29.2161928,42.4139116 C28.696739,45.68151 29.3670683,46.5695422 34.8600161,47.0923373 L34.4143293,49.0966426 L17.707759,49.0966426 L18.1534458,47.0923373 C22.4599518,46.7204177 23.9445462,45.68151 25.1343293,42.5614458 C26.3207711,39.4411245 27.8087068,35.0608514 30.479743,25.5564659 L34.6389719,11.450249 C36.7905542,4.02367871 36.4217189,3.5042249 29.3670683,2.83389558 L29.8865221,0.903614458 L42.2868434,0.903614458 C44.8103454,13.0823775 47.3371888,24.8157108 50.3804016,38.1074056 L71.3680321,4.29741365 C70.5175261,3.43739759 68.6885141,3.15929317 65.2942008,2.83389558 L65.7398876,0.90335743 L83.7241446,0.90335743 C83.7244016,0.90335743 83.7249157,0.903614458 83.7251727,0.903614458 L86.3728193,0.903614458 L86.3450602,1.00668273 C94.9891727,1.7057992 99.3146988,5.99945382 99.3146988,13.3807871 C99.3146988,23.9978474 89.6627791,29.0484498 81.642988,29.5679036 Z M82.7556627,3.20581526 C82.5197108,3.20581526 82.2906988,3.21609639 82.0657992,3.23151807 C78.4674056,3.80520482 78.1666827,4.99550201 77.4094779,9.88854618 C76.568739,15.6577992 75.8356948,20.8417992 75.1399197,25.932755 C76.213012,26.2532691 77.8636466,26.6722249 79.7862169,26.6722249 C85.0578635,26.6722249 92.7057349,23.180241 92.7057349,13.1561446 C92.7057349,6.99286747 89.2170924,3.20581526 82.7556627,3.20581526 Z" id="tmp-logo"></path>
                </g>
            </g>
        </g>
    </g>
</svg>